/* XPM */
static char *result[] = {
/* columns rows colors chars-per-pixel */
"50 50 165 2 ",
"   c black",
".  c #020000",
"X  c #020101",
"o  c #0E0B06",
"O  c #090909",
"+  c #110D08",
"@  c #16110A",
"#  c #1C160D",
"$  c #1F180E",
"%  c gray8",
"&  c #1E1E1E",
"*  c #302516",
"=  c #362A18",
"-  c #372A19",
";  c #3A2C1A",
":  c #382F23",
">  c #323232",
",  c #640F0F",
"<  c #731E1E",
"1  c #67251A",
"2  c #693221",
"3  c #5D482A",
"4  c #624C2C",
"5  c #6D5432",
"6  c #6E5532",
"7  c #6F5532",
"8  c #6F5632",
"9  c gray26",
"0  c #444444",
"q  c #505050",
"w  c gray34",
"e  c #7D6441",
"r  c #626262",
"t  c #676767",
"y  c #8B1515",
"u  c #961616",
"i  c #9D1E1E",
"p  c #A61919",
"a  c #AA1919",
"s  c #B11E1E",
"d  c #AD3024",
"f  c #C61C1C",
"g  c #C71E1E",
"h  c #C91B1B",
"j  c #C81D1D",
"k  c #C81E1E",
"l  c #C81F1F",
"z  c #C42727",
"x  c #CA2020",
"c  c #C92320",
"v  c #C92824",
"b  c #CA2B24",
"n  c #C92C24",
"m  c #CC3322",
"M  c #CB352A",
"N  c #CC3D2E",
"B  c #CB3030",
"V  c #CC3131",
"C  c #CC3535",
"Z  c #CE3D3D",
"A  c #84663C",
"S  c #87683D",
"D  c #CD402F",
"F  c #CD412F",
"G  c #CD4230",
"H  c #CE4C35",
"J  c #D24634",
"K  c #CF5037",
"L  c #884242",
"P  c #894242",
"I  c #8C6C40",
"U  c #917042",
"Y  c #957344",
"T  c #967444",
"R  c #997645",
"E  c #907B5F",
"W  c #917C5F",
"Q  c #A07C49",
"!  c #816767",
"~  c #9E6767",
"^  c #847D72",
"/  c #CE4040",
"(  c #CF4141",
")  c #CF4242",
"_  c #D14C4C",
"`  c #D25353",
"'  c #D35959",
"]  c #D26542",
"[  c #D36E46",
"{  c #DD714C",
"}  c #DD734E",
"|  c #D57C4D",
" . c #D66565",
".. c #D66767",
"X. c #D97E72",
"o. c #A5804B",
"O. c #A6804B",
"+. c #AC8752",
"@. c #B08850",
"#. c #B18950",
"$. c #BA9055",
"%. c #A5947E",
"&. c #B59972",
"*. c #D68451",
"=. c #D78752",
"-. c #D78953",
";. c #C09557",
":. c #C19558",
">. c #C39758",
",. c #C2975A",
"<. c #CA9C5C",
"1. c #D9955A",
"2. c #D9975A",
"3. c #D9925F",
"4. c #DA9F5E",
"5. c #E2945E",
"6. c #CFA05E",
"7. c #D0A15F",
"8. c #D1A15F",
"9. c #D7A15E",
"0. c #DC9B74",
"q. c #DC927D",
"w. c #D5A561",
"e. c #D8A762",
"r. c #DBA662",
"t. c #DFAA60",
"y. c #DCA863",
"u. c #DCAA63",
"i. c #DBA964",
"p. c #DBAA64",
"a. c #DDA864",
"s. c #DCA964",
"d. c #DCAA64",
"f. c #DCAB64",
"g. c #DCAC69",
"h. c #DDAC69",
"j. c #DDAE6C",
"k. c #DDAF6D",
"l. c #D8B162",
"z. c #CCA773",
"x. c #DEB070",
"c. c #DEB071",
"v. c #DEB274",
"b. c #DEB376",
"n. c #DFB479",
"m. c #DFB57B",
"M. c #DFB67C",
"N. c #E1AF69",
"B. c #E6B46E",
"V. c #E0B67D",
"C. c #E0B881",
"Z. c #E0B882",
"A. c #E0B982",
"S. c #E0B983",
"D. c #E1BB87",
"F. c #E1BB88",
"G. c #E1BC89",
"H. c #E2BD8C",
"J. c #E2C193",
"K. c #E3C193",
"L. c #E3C094",
"P. c #E3C194",
"I. c #E3C295",
"U. c #C1C0C1",
"Y. c #C5C5C5",
/* pixels */
"Y.Y.Y.Y.Y.Y.Y.Y.Y.Y.Y.Y.Y.Y.Y.Y.Y.Y.Y.Y.Y.Y.Y.Y.Y.Y.Y.Y.Y.Y.Y.Y.Y.Y.Y.Y.Y.Y.Y.Y.Y.Y.Y.Y.Y.Y.Y.Y.Y.Y.",
"Y.U.U.U.U.U.U.U.U.U.U.U.U.U.U.U.U.U.U.U.U.U.U.U.U.U.U.U.U.U.U.U.U.U.U.U.U.U.U.U.U.U.U.U.U.U.U.U.U.Y.",
"Y.U.U.U.U.Y.i.i.i.i.i.i.i.i.n g g g g g g g g g g g g g g g g g g g g g g g g g g g g U.U.U.U.U.Y.Y.",
"Y.U.U.U.U.i.d.d.d.d.d.d.d.d.y.F k k k k k k k k k k k k k k k k k k k k k k k k k k k g U.U.U.Y.Y.Y.",
"Y.U.U.U.U.i.d.d.d.d.d.d.d.d.d.d.K k k k k k k k k k k k k k k k k k k k k k k k k k k g U.U.U.Y.Y.Y.",
"Y.U.U.U.U.i.d.d.d.d.d.d.d.d.d.d.d.=.k k k k k k k k k k k k k k k k k k k k k k k k k g U.U.U.Y.U.Y.",
"Y.U.U.U.U.i.d.d.d.d.d.d.d.d.d.d.d.d.=.N k k k k k k k k k k k k k k k k k k k k k k k g U.U.U.Y.U.Y.",
"Y.U.U.U.U.i.d.N.B.B.B.B.B.B.B.B.B.B.B.B.5.} } } } } } } } } } } } } } } } } } } { J k g U.U.U.Y.U.Y.",
"Y.U.U.U.U.i.d.d.d.d.d.d.d.d.d.d.d.d.d.d.d.] k k k k k k k k k k k k k k k k k k k k k g U.U.U.Y.U.Y.",
"Y.U.U.U.U.a.d.d.d.d.d.d.d.d.d.d.d.d.d.d.d.d.=.k k k k k k k k k k k k k k k k k k k k k U.U.U.Y.U.Y.",
"Y.U.U.U.U.9.d.d.d.d.d.d.d.d.d.d.d.d.d.d.d.d.d.1.D k k k k k k k k k k k k k k k k k k h U.U.U.Y.U.Y.",
"Y.U.U.U.U.U.d.d.d.d.d.d.d.d.d.d.d.d.d.d.d.d.d.d.d.G k k k k k k k k k k k k k k k k k U.U.U.U.Y.U.Y.",
"Y.U.U.U.U.U.d.d.d.d.d.d.d.d.d.d.d.d.d.d.d.d.d.d.d.d.| k k k k k k k k k k k k k k k k U.U.U.U.Y.U.Y.",
"Y.U.U.U.U.U.d.d.M.d.d.d.d.d.d.d.d.d.d.d.d.d.d.d.d.d.d.=.c k k k k k k k k k k k ( k k U.U.U.U.U.Y.Y.",
"Y.U.U.U.U.U.d.d.F.d.d.d.d.d.d.d.d.d.d.d.d.d.d.d.d.d.d.d.r.F k k k k k k k k k k ` k k U.U.U.U.U.Y.Y.",
"Y.Y.U.U.U.U.d.d.P.d.d.d.T S d.d.U I d.d.d.8 ;.d.R R R $.R R d a a a p k y k k k  .k k U.U.U.U.U.Y.Y.",
"Y.Y.U.U.U.U.f.d.H.n.d.d.    - <.    - d.-     w.      6     6 6 , ,   k   k k Z ' k k U.U.U.U.U.Y.Y.",
"Y.Y.U.U.U.U.u.d.M.S.d.d.  e.  <.  7.  6.  :.* 6 >.  A 6.  d.d.6 2 1   u   k k _ ) k k U.U.U.U.U.Y.Y.",
"Y.U.U.U.U.U.i.d.M.I.d.d.  d.  <.  @.  7   d.6 6 d.  Y d.  6 o.6 6 6   ,   k k ..) k g U.U.U.U.U.Y.Y.",
"Y.U.U.U.U.U.i.d.M.I.c.d.  X $ <.    5 6 @ d.6 4 d.  Y d.    6 6 6 6 3 .   k V ..) k g U.U.U.U.U.Y.Y.",
"Y.U.U.U.U.U.i.d.M.I.M.d.  6 :.<.% ; = 8   d.6 6 d.  Y d.  d.d.6 6 6 6 +   k ) ..) k g U.U.U.U.U.Y.Y.",
"Y.U.U.U.U.U.i.d.M.I.M.d.  d.d.<.O z.% 8.  O.# 6 d.  Y d.  I Q 6 6 6 6 6   F ) ..) k g U.U.U.U.U.Y.Y.",
"Y.U.U.U.U.U.i.d.M.I.M.d.  d.d.<.  d.> D.:   o d.d.  Y d.    = 6 6 6 6 #.  2.) ..) k g U.U.U.U.U.Y.Y.",
"Y.U.U.U.U.U.i.d.m.I.A.d.d.d.d.d.d.d.d.x.I.&.j.d.d.d.d.d.d.d.d.d.d.d.d.d.d.d.0.../ k g U.U.U.U.U.Y.Y.",
"Y.U.U.U.U.U.b 4.x.I.J.d.d.d.d.d.d.d.d.d.g.G.I.A.h.d.d.d.d.d.d.b.x.d.d.d.d.d.J.X.B k j U.U.U.U.U.Y.Y.",
"Y.U.U.U.U.U.m D d.I.I.d.d.d.d.d.d.d.d.d.d.d.C.I.I.A.M.M.Z.I.V.j.d.d.d.d.d.d.I.L.k k m U.U.U.U.U.Y.Y.",
"Y.U.U.U.U.U.U.k F I.I.d.d.d.d.d.d.d.d.d.d.d.d.x.I.I.I.K.M.d.d.d.d.d.d.d.d.d.I.I.=.k U.U.U.U.U.U.Y.Y.",
"Y.U.U.U.U.U.U.k k X.I.d.d.d.d.d.d.d.d.d.d.d.d.d.d.m.v.d.d.d.d.d.d.d.d.d.d.d.I.I.d.G U.U.U.U.U.U.Y.Y.",
"Y.U.U.U.U.U.U.k k ..q.d.d.d.d.d.d.d.d.d.d.d.d.d.d.d.d.d.d.d.d.d.d.d.d.d.d.d.I.I.d.d.U.U.U.U.U.U.U.Y.",
"Y.U.U.U.U.U.U.< i ....3.d.d.d.d.d.d.d.d.d.d.d.d.d.d.d.d.d.d.d.d.d.d.d.d.d.k.I.I.+.e U.U.U.U.U.U.U.Y.",
"Y.U.U.U.U.U.U.& & ! ~ P e e e e e e e e e e e e e e e e e e e e e e e e e W %.^ & & U.U.U.U.U.U.U.Y.",
"Y.U.U.U.U.U.U.& & r t 9 & & & & & & & & & & & & & & & & & & & & & & & & & 9 t r & & U.U.U.U.U.U.U.Y.",
"Y.U.U.U.U.U.U.& & q t 9 & & & & & & & & & & & & & & & & & & & & & & & & & 9 t q & & U.U.U.U.U.U.U.Y.",
"Y.U.U.U.U.U.U.& & 9 t 9 & & & & & & & & & & & & & & & & & & & & & & & & & 9 t 9 & & U.U.U.U.U.U.U.Y.",
"Y.U.U.U.U.U.U.& & 9 t 0 & & & & & & & & & & & & & & & & & & & & & & & & & 0 t 9 & & U.U.U.U.U.U.U.Y.",
"Y.U.U.U.U.U.U.& & 9 t w & & & & & & & & & & & & & & & & & & & & & & & & & w t 9 & & U.U.U.U.U.U.U.Y.",
"Y.U.U.U.U.U.U.& & 9 t t & & & & & & & & & & & & & & & & & & & & & & & & & t t 9 & & U.U.U.U.U.U.Y.Y.",
"Y.U.U.U.U.U.U.& & 9 t t & & & & & & & & & & & & & & & & & & & & & & & & & t t 9 & & U.U.U.U.U.U.Y.Y.",
"Y.U.U.U.U.U.U.l s L t t & & & & & & & & & & & & & & & & & & & & & & & & & t t E ,.s.U.U.U.U.U.U.Y.Y.",
"Y.U.U.U.U.U.U.f k C ....k k k k k k k k k H d.d.d.d.d.d.d.d.d.d.d.d.d.d.d.I.I.v.d.p.U.U.U.U.U.U.Y.Y.",
"Y.U.U.U.U.U.U.z k k ) ) k k k k k k k k k k D -.d.d.d.d.d.d.d.d.d.d.d.d.d.M.M.d.d.l.U.U.U.U.U.U.Y.Y.",
"Y.U.U.U.U.U.U.U.k k k k k k k k k k k k k k k k *.d.d.d.d.d.d.d.d.d.d.d.d.d.d.d.d.U.U.U.U.U.U.Y.U.Y.",
"Y.U.U.U.U.U.U.U.k k k k k k k k k k k k k k k k k F d.d.d.d.d.d.d.d.d.d.d.d.d.d.d.U.U.U.U.U.U.Y.U.Y.",
"Y.U.U.U.U.U.U.U.k k k k k k k k k k k k k k k k k k M =.d.d.d.d.d.d.d.d.d.d.d.d.d.U.U.U.U.U.U.Y.U.Y.",
"Y.U.U.U.U.U.U.U.j k k k k k k k k k k k k k k k k k k k [ d.d.d.d.d.d.d.d.d.d.d.f.U.U.U.U.U.U.Y.U.Y.",
"Y.U.U.U.U.U.U.U.U.U.g k k k k k k k k k k k k k k k k k k F d.d.d.d.d.d.d.d.i.U.U.U.U.U.U.U.U.Y.U.Y.",
"Y.U.U.U.U.U.U.U.U.U.U.x g g g g g g g g g g g g g g g g g g v i.i.i.i.i.i.t.U.U.U.U.U.U.U.U.U.Y.U.Y.",
"Y.U.U.U.U.U.U.U.U.U.U.U.U.U.U.U.U.U.U.U.U.U.U.U.U.U.U.U.U.U.U.U.U.U.U.U.U.U.U.U.U.U.U.U.U.U.U.Y.Y.Y.",
"Y.U.U.U.U.U.U.U.U.U.U.U.U.U.U.U.U.U.U.U.U.U.U.U.U.U.U.Y.Y.Y.Y.Y.Y.Y.Y.Y.Y.Y.Y.Y.Y.Y.Y.Y.Y.Y.Y.Y.Y.Y.",
"Y.Y.Y.Y.Y.Y.Y.Y.Y.Y.Y.Y.Y.Y.Y.Y.Y.Y.Y.Y.Y.Y.Y.Y.Y.Y.Y.Y.Y.Y.Y.Y.Y.Y.Y.Y.Y.Y.Y.Y.Y.Y.Y.Y.Y.Y.Y.Y.Y.Y."
};
