/* XPM */
static char *result[] = {
/* columns rows colors chars-per-pixel */
"50 50 200 2 ",
"   c black",
".  c #400000",
"X  c #550000",
"o  c #5C0000",
"O  c #5D0100",
"+  c #5F0000",
"@  c #5E0100",
"#  c #5F0100",
"$  c #5D0300",
"%  c #5E0200",
"&  c #5F0200",
"*  c #5E0300",
"=  c #5D0400",
"-  c #5E0500",
";  c #5D0600",
":  c #600000",
">  c #600200",
",  c #630505",
"<  c #640806",
"1  c #660C08",
"2  c #6E1612",
"3  c #701712",
"4  c #701814",
"5  c #731C16",
"6  c #71211A",
"7  c #7D2821",
"8  c #7C2A23",
"9  c #800000",
"0  c #812D24",
"q  c #802E2E",
"w  c #80312A",
"e  c #82322B",
"r  c #863229",
"t  c #82332C",
"y  c #80372E",
"u  c #97493C",
"i  c #9F5547",
"p  c #985248",
"a  c #A55A4C",
"s  c #A75B4C",
"d  c #A65C4D",
"f  c #AA5F4F",
"g  c #AA5F50",
"h  c #AB6151",
"j  c #A96B5E",
"k  c #B06A5A",
"l  c #B46D5A",
"z  c #B46C5B",
"x  c #AF7365",
"c  c #B97361",
"v  c #BA7260",
"b  c #BC7464",
"n  c #BF7764",
"m  c #B17668",
"M  c #B1766C",
"N  c #B97969",
"B  c #C07A67",
"V  c #BE8473",
"C  c #C4806B",
"Z  c #C4816D",
"A  c #C7836E",
"S  c #CF8D76",
"D  c #C08A78",
"F  c #C28B7A",
"G  c #D18F79",
"H  c #CF947E",
"J  c #BF8F80",
"K  c #D58E80",
"L  c #D99780",
"P  c #D89981",
"I  c #D99981",
"U  c #DD9F86",
"Y  c #D3A592",
"T  c #DDB39F",
"R  c #E3A589",
"E  c #E2A58B",
"W  c #E4A78D",
"Q  c #E6A88E",
"!  c #E6AA8E",
"~  c #E9AD91",
"^  c #E9AD92",
"/  c #EBAF94",
"(  c #EDB297",
")  c #EEB397",
"_  c #E5B39B",
"`  c #F0B498",
"'  c #F0B599",
"]  c #F2B79A",
"[  c #F1B89C",
"{  c #F3B99C",
"}  c #F3B99D",
"|  c #F3BA9C",
" . c #F4BA9C",
".. c #F6BD9F",
"X. c #DDB3A0",
"o. c #E0B7A2",
"O. c #EBBAA1",
"+. c #E5BCA8",
"@. c #F3BDA0",
"#. c #F2BDA1",
"$. c #F2BDA2",
"%. c #F5BDA0",
"&. c #F8BEA0",
"*. c #F8C0A2",
"=. c #F9C0A2",
"-. c #FAC2A3",
";. c #FFC5A2",
":. c #FAC2A5",
">. c #FBC3A5",
",. c #FBC2A6",
"<. c #FAC4A7",
"1. c #FFC6A5",
"2. c #FDC5A7",
"3. c #FEC4A7",
"4. c #FDC6A7",
"5. c #FEC6A7",
"6. c #FFC7A7",
"7. c #FFC3AA",
"8. c #F9C5A9",
"9. c #F9C6AA",
"0. c #F8C7AB",
"q. c #FFC5A9",
"w. c #FCC6A8",
"e. c #FDC6A8",
"r. c #FEC7A8",
"t. c #FFC7A8",
"y. c #FEC7A9",
"u. c #FFC7A9",
"i. c #FFC6AA",
"p. c #FFC8A8",
"a. c #FFC8A9",
"s. c #FFC8AA",
"d. c #FFC9AA",
"f. c #FFC9AB",
"g. c #FFCAAB",
"h. c #F9CBAF",
"j. c #FECAAC",
"k. c #FFCAAC",
"l. c #FFCBAC",
"z. c #FFCAAD",
"x. c #FFCBAD",
"c. c #FFCCAE",
"v. c #FFCDAF",
"b. c #F2CAB2",
"n. c #FDCDB0",
"m. c #FCCDB1",
"M. c #FFCDB0",
"N. c #FFCDB1",
"B. c #FFCEB0",
"V. c #FFCEB1",
"C. c #FFCFB2",
"Z. c #F1CFB8",
"A. c #FFD0B3",
"S. c #FFD1B3",
"D. c #FFD1B4",
"F. c #FFD1B5",
"G. c #FFD2B5",
"H. c #FFD3B6",
"J. c #FFD3B7",
"K. c #FFD4B7",
"L. c #F3D2BA",
"P. c #F6D5BE",
"I. c #F7D7BF",
"U. c #F8D2B9",
"Y. c #FCD5B9",
"T. c #FFD4B8",
"R. c #FFD5B8",
"E. c #FFD5B9",
"W. c #FFD6BA",
"Q. c #FFD7BB",
"!. c #FFD7BC",
"~. c #FFD8BD",
"^. c #FFD9BE",
"/. c #FFDABF",
"(. c #FFDFBF",
"). c #C5C5C5",
"_. c #FDDBC1",
"`. c #FFDBC0",
"'. c #FFDCC2",
"]. c #FFDDC2",
"[. c #FFDDC3",
"{. c #FFDEC3",
"}. c #FBDCC4",
"|. c #FDDEC5",
" X c #FEDEC4",
".X c #FFDEC4",
"XX c #FFDFC5",
"oX c #FCDEC6",
"OX c #FFDFC6",
"+X c #FFE0C6",
"@X c #FEE0C7",
"#X c #FFE0C7",
"$X c #FFE1C7",
"%X c #FFE3C6",
"&X c #FEE1C8",
"*X c #FFE1C8",
"=X c #FFE1C9",
"-X c #FFE2C9",
";X c #FFE3C9",
":X c #FFE2CA",
/* pixels */
").).).).).).).).).).).).).).).).).).).).).).).).).).).).).).).).).).).).).).).).).).).).).).).).).).",
").).).).).).).).).).).).).).).).).).).).).).).).).).).).).).).).).).).).).).).).).).).).).).).).).).",
").).).).).).).).).).).).).).).).).).).).).).).).).).).).).).).).).).).).).).).).).).).).).).).).).).",
").).).).).).).).).).).).).).).).).).).).).).).).).).).).).).).).).).).).).).).).).).).).).).).).).).",
").).).).).).).).).).).).).).).).).).).).).).).).).).).).).).).).).).).).).).).).).).).).).).).).).).",
").).).).).).).).).).).).).).).).).).).).).).).).).).).).).).).).).).).).).).).).).).).).).).).).).).",
").).).).).).).).).).).).).).).).).).).).).).).).).$ O ).).).).).).).).).).).).).).).).).).).).).).).",
").).).).).).).).).).).).).).).).).).).).).).).).;X}.I.=X=X=XT $ ).).).).).).).).).).).).).).).).).).",
").).).).).).).).).).).).).).).).).).).).).).).q x -X-X-X-X-X-X-XP.J ).).).).).).).).).).).).).).).).",
").).).).).).).).).).).).).).).).).).).).).).).:X_._.!.L.Y -X-X*XZ.o.).).).).).).).).).).).).).).).).",
").).).).).).).).).).).).).).).).).).).).).).% m.O. Xl.9._ `.N *X-Xp X ).).).).).).).).).).).).).).).",
").).).).).).).).).).).).).).).).).).).).).).V t.D.G.XX#.-XD.y.-X-X@X(.).).).).).).).).).).).).).).).",
").).).).).).).).).).).).).).).).).).).).).).).~ p.a.a.E a.a.i -X-X-X6 ).).).).).).).).).).).).).).).",
").).).).).).).).).).).).).).).).).).).).).).).k E.E.f.A U W a.!.-X-Xl ).).).).).).).).).).).).).).).",
").).).).).).).).).).).).).).).).).).).).).).).y m -X].u ' { a.d B.B.6.& ).).).).).).).).).).).).).).",
").).).).).).).).).).).).).).).).).).).).).).).).*XY.-.oX-X*X-X-X-X-X#X3.).).).).).).).).).).).).).).",
").).).).).).).).).).).).).).).).).).).).).).).).X & # j ;XN.#X-X-X-X-XH ).).).).).).).).).).).).).).",
").).).).).).).).).).).).).).).).).).).).).).).).).).).).).s h.-X-X-X-X[.i.).).).).).).).).).).).).).",
").).).).).).).).).).).).).).).).).).).).).).).).).).).).).@  .-X-X-X-X'.a.).).).).).).).).).).).).).",
").).).).).).).).).).).).).).).).).).).).).).).).).).).).).9 p.-X-X-X-X'.c 4 ).).).).).).).).).).).).",
").).).).).).).).).).).).).).).).).).).).).).).).).).).).).).a./.-X*X-X-XE.n ).).).).).).).).).).).).",
").).).).).).).).).).).).).).).).).).).).).).).).).).).).).).a.^.-X*X-X-XE.P ).).).).).).).).).).).).",
").).).).).).).).).).).).).).).).).).).).).).).).).).).).).).a.-X-X-X@.-X#XM.).).).).).).).).).).).).",
").).).).).).).).).).).).).).).).).).).).).).).).).).).).).2 %.-X-X-XS.+X-XV.3 ).).).).).).).).).).).",
").).).).).).).).).).).w.u.u.u.* ).).).).).).).).).).).).).,./.-X-X-X-X$.-XW.a.).).).).).).).).).).).",
").).).).).).).).).).& e.a.a.a.C G = ).).+ % $ ).).).).).).a.#X-X-X-X-Xb.-X-Xr.% ).).).).).).).).).).",
").).).).).).).).).).( a.a.a.d.XX<.&.7 a.=.) ..] 5 * ).).).a.#X-X-X-X-X'.W.-XXX( ).).).).).).).).).).",
").).).).).).).).).p.a.v.-X-X-X-X.XB.x.c.c.c.c.c.c.f.r 6.).a.a.-X-X-X-X-X*X-X-Xj.K ).).).).).).).).).",
").).).).).).).).;.a.A.-X-X-X-X-XXXR.XX-X-X-X-X-X-X~.H.5.q.a.a.^.-X-X-X-X|.@X-XU.! ).).).).).).).).).",
").).).).).).).).1.u.`.-X-X-X-X-XOX.X-X-X-X-X-X-X-X-X-X^.J.s.a.g.~.-X-X-X@X&X-X`.v o ).).).).).).).).",
").).).).).).).).i.J.*X-X-X-X-X-X-X-X-X-X-X-X-X-X-X-X-X-X*X#X#X} U g.*X-X-X-X-X.X8.[ ).).).).).).).).",
").).).).).).).).D -X-X-X-X-X-X-X-X-X-X-X-X-X-X-X-X-X-X-X-X-X-X-X-XJ.e [.-X-X-X-XT.i.).).).).).).).).",
").).).).).).).).t -X-X-X-X-X-X-X-X-X-X-X-X-X-X-X-X-X-X-X-X-X-X-X-X-X-X-X-X-X-X*XH.i.).).).).).).).).",
").).).).).).).).w -X-X-X-X-X-X-X-X-X-X*XK.0.n.F.-X-X-X-X-X-X-X-X-X-X-X-X-X-X-X'.k.i.).).).).).).).).",
").).).).).).).).F -X-X-X-X-X-X-X-XT.Z d.a.z..X*X-X-X-X-X-X-X-X-X-X-X-X-X-X-X-X`.a.i.).).).).).).).).",
").).).).).).).).%X-X-X-XM.k.` p.a.x.B.C.-X-X-X-X-X-X-X-X-X-X-X-X-X-X-X-X-X-X-XQ.z ; ).).).).).).).).",
").).).).).).).).%X-X-X-XXXT.R.R.E.'.-X-X-X-X-X-X-X-X-X-X-X-X-X-X-X-X-X-X-X-XE.a.p.).).).).).).).).).",
").).).).).).).).M +.-X-XD.XX-X-X-X-X-X-X-X-X-X-X-X-X-X-X-X-X-X-X-X-X-X{.V.V.a.>.7.).).).).).).).).).",
").).).).).).).).).$X&X-X-X-X-X-X-X-X-X-X-X-X-X-X-X-X-X-X-X-X-X-X-XC.4.a.B 1 ).).).).).).).).).).).).",
").).).).).).).).).$ X.-X-X-X-X-X-X.X`.`.`.`.`.`.`.`.`.`.`.V.a.*.^ a.< ).).).).).).).).).).).).).).).",
").).).).).).).).).).:X:XE.T.T.T.T.B.a.2.S g / a.a.a.a.' h f | Q 8 ).).).).).).).).).).).).).).).).).",
").).).).).).).).).).).:Xa.a.a.a.I 0 b :.a - L i.i.i.i.R , : . ).).).).).).).).).).).).).).).).).).).",
").).).).).).).).).).).).% >   ).).).).).).).).).).).).).).).).).).).).).).).).).).).).).).).).).).).",
").).).).).).).).).).).).).).).).).).).).).).).).).).).).).).).).).).).).).).).).).).).).).).).).).).",
").).).).).).).).).).).).).).).).).).).).).).).).).).).).).).).).).).).).).).).).).).).).).).).).).).",
").).).).).).).).).).).).).).).).).).).).).).).).).).).).).).).).).).).).).).).).).).).).).).).).).).",
").).).).).).).).).).).).).).).).).).).).).).).).).).).).).).).).).).).).).).).).).).).).).).).).).).",
").).).).).).).).).).).).).).).).).).).).).).).).).).).).).).).).).).).).).).).).).).).).).).).).).).",
").).).).).).).).).).).).).).).).).).).).).).).).).).).).).).).).).).).).).).).).).).).).).).).).).).",
").).).).).).).).).).).).).).).).).).).).).).).).).).).).).).).).).).).).).).).).).).).).).).).).).)."
};
