/* XPM */
static char *result[] = {
/* columns rows colors chars-per-pixel */
"50 50 78 1 ",
"  c #969596",
". c gray59",
"X c gray61",
"o c #9E9D9E",
"O c #9F9E9F",
"+ c #A1A0A0",
"@ c gray63",
"# c #A2A2A2",
"$ c gray64",
"% c #A4A3A3",
"& c #A4A3A4",
"* c #A4A4A4",
"= c #A5A4A4",
"- c #A5A4A5",
"; c #A5A5A5",
": c #A6A5A5",
"> c #A6A5A6",
", c gray65",
"< c #A7A6A7",
"1 c #A7A7A7",
"2 c #A8A7A7",
"3 c #A8A7A8",
"4 c gray66",
"5 c #A9A8A8",
"6 c #A9A8A9",
"7 c #A9A9A9",
"8 c #AAA9AA",
"9 c #AAAAAA",
"0 c #ABAAAB",
"q c gray67",
"w c #ACABAC",
"e c #ACACAC",
"r c #ADACAD",
"t c gray68",
"y c #AEADAE",
"u c #AEAEAE",
"i c #AFAEAF",
"p c #AFAFAF",
"a c #B0AFB0",
"s c gray69",
"d c #B1B0B1",
"f c #B1B1B1",
"g c #B2B1B2",
"h c #B2B2B2",
"j c #B3B2B3",
"k c gray70",
"l c #B4B3B4",
"z c #B4B4B4",
"x c #B5B4B5",
"c c gray71",
"v c #B6B5B6",
"b c #B6B6B6",
"n c #B7B6B7",
"m c #B7B7B7",
"M c #B8B7B8",
"N c gray72",
"B c #B9B8B9",
"V c #B9B9B9",
"C c #BAB9BA",
"Z c gray73",
"A c #BBBABB",
"S c #BBBBBB",
"D c #BCBBBC",
"F c #BCBCBC",
"G c #BDBCBD",
"H c gray74",
"J c #BEBDBE",
"K c gray",
"L c #BFBEBF",
"P c gray75",
"I c #C0BFC0",
"U c #C0C0C0",
"Y c #C1C0C1",
"T c #C1C1C1",
"R c gray76",
"E c #C3C3C3",
"W c gray77",
"Q c #C5C5C5",
/* pixels */
"bat7rr<1jp0ajr0u0:7gu0lcqtst@uxfsjzfsseqfsseqrzfs.",
"nae7rr<1jy0ahw0u0:7gy0lcqtse@uxfsjzfsswqfsswqrzfs.",
"bae7tr<3jy0afq0u9;7gr0lc9tsr@uvpsjkssfqqssfqqrcss.",
"vae9ur<3jy0agqqu9;7hr0lc9usr@uvpsjxssfwqssfwqrvss.",
"vae9ur<6jy9djqruq;8jr0lv9psr@uvpsjxsffwqsffwqrvsf.",
"ZStzHm8NRgiPTemHz;BRyaEW9FUk@PQpNPUsTPpusTPpuBWsF.",
"ZStzHm8nRgiKTecHz;mRypEW9FUk@KQfNPUsUPptsUPptMWsA.",
"ulHm8bRgiKTececHz;mRyiRW9FUz@KQfNPUfUPststMWfZ.sF.",
"OZStzHm8nRgiKiKTecHz;mRypEW9FUk@KQfNPUsUsUPptMWsA.",
"OZSulHm8bRgiKiKTecHz;mRyiRW9FUz@KQfNPUfUfUPstMWfZ.",
"OSSukGm8zRgiHiHTrxHz;mRiiRWqFUz@KQfNPUfUfUPstMWfZ.",
"OGSukFm8lRguHuHTtzHx>mRpiRWqFUz@LQfNPUfUfUPstMWfZ.",
"ObSNkFZujRFuHuHTbzHC3mRZiRWzFUD9GQHHPEHUHULCBMWKP.",
"ObSZkFSpjRHuHuHTnzHZ6mRHiREbAUPqGQTPPWTUTULHHMWTU.",
"ObSAkFSpjRFiHiHTbzHB3vRZiREzAUF9GQPPPEUUUULDHNWUU.",
"ObSAzHSpbRFiKiKTbxHB3vRZiRQzAUA9GQHUPEPUPUKZHNWPU.",
"ObSAzHSpVRFiPiPTbmHB3BRZaEQzHUA9GQHPPWPTPTKCHNWPU.",
"OlbCsbbygSSrBrBAbhbc3jSVyGPzmVB9mKJFCLPZPZNBSkKPF.",
"OfaC9uae6jV8p8pjvwrs27jB0lnzpsb9uvLNjBUsUssMVwvIc.",
"OdaS9tae3jV0i0ijvwts27jC0lbcusv7uvYNjBTsTssMVwcIc.",
"OfaS8rae3gV0i0ijvwuf27jC8lbbusm9uvYNjNTsTssNVecUc.",
"OfaS8rae1gV0i0ijn0uf17jF8lbbusm9uxTNjNTsTssZVecTc.",
"Omaz7ri81hx8a8ajh9ry;7hv8lcftsh,yxVzjbVsVsskhezVk.",
"OFaz7ru81jc8a8ajh0uy;7gb8lcstsf;rxVkjbVsVssggezVk.",
"ODaj7ry71jz8a8ahd0uy;7gc8lcatsf;rxBzjbVsVssggezVk.",
"OSaj7ty43jz8a8afd0ut;7gc8lcitss;rvnzjnNsNssfgecNk.",
"oSaj9ty63jz8a8agdqut;7hc8lcitsf;rvnzjnNsNsfggrcNk ",
"oZaj9uy66jz9d9djdeuu;8jc9lbiisf;yvnzjnNfNffggrvNk ",
"oVtjsre0fszwhwhpffqt;pscrccibus;zznNhcNVNVsfjfkNZ ",
"oVtlawtqsszwgwgpfd8e;ppcrcjibud;zkBMhvNNNNsgjpkMN ",
"oVtki8tqpszwfwfpfaqe;uscrcgabus;zjVMhzVNVNpgjshVm ",
"oCtku7tqyszwfwfpfp9t;uscrchsbua;zhVNhlNNNNigjpsVm.",
"oAtzy7tqtszwdwdphi9e;usvrchsbua;zsVNhhNNNNugjpsVM.",
"OfaS8rae1gV0i0ijn0uf17jF8lbbusm9uxTNjNTsTssZVecTc.",
"Omaz7ri81hx8a8ajh9ry;7hv8lcftsh,yxVzjbVsVsskhezVk.",
"OFaz7ru81jc8a8ajh0uy;7gb8lcstsf;rxVkjbVsVssggezVk.",
"ODaj7ry71jz8a8ahd0uy;7gc8lcatsf;rxBzjbVsVssggezVk.",
"OSaj7ty43jz8a8afd0ut;7gc8lcitss;rvnzjnNsNssfgecNk.",
"oSaj9ty63jz8a8agdqut;7hc8lcitsf;rvnzjnNsNsfggrcNk ",
"oZaj9uy66jz9d9djdeuu;8jc9lbiisf;yvnzjnNfNffggrvNk ",
"oVtjsre0fszwhwhpffqt;pscrccibus;zznNhcNVNVsfjfkNZ ",
"oVtlawtqsszwgwgpfd8e;ppcrcjibud;zkBMhvNNNNsgjpkMN ",
"oVtki8tqpszwfwfpfaqe;uscrcgabus;zjVMhzVNVNpgjshVm ",
"oCtku7tqyszwfwfpfp9t;uscrchsbua;zhVNhlNNNNigjpsVm.",
"oAtzy7tqtszwdwdphi9e;usvrchsbua;zsVNhhNNNNugjpsVM.",
"ost-t77-rs3wdwdp<iw:#us>rcu;xu,Xjs6ght1N1Nu**pp6h.",
"ost*t05&rp:wdwdp;iw-#us>wxu*ku,Xjs4ght1N1Nu&*pp3j.",
"ost*tw4&rp=wdwdp%iw&@ys+wzu$ku-Xjs,ght,N,Nu$;sp1k.",
"ost*pr4&is=wfwfp%ar$@ys+wzd#ku*Xjk&ghs>N>Nu#;sf;k.",
"opt*sy2&ff=wjwjp%jr*@fs+rvg#cu*Xjz&dhd>Vu#;szsz,z."
};
