/* XPM */
static char *result[] = {
/* columns rows colors chars-per-pixel */
"50 50 128 2 ",
"   c black",
".  c #400000",
"X  c #550000",
"o  c #5D0100",
"O  c #5E0100",
"+  c #5F0100",
"@  c #5D0300",
"#  c #5E0200",
"$  c #5F0200",
"%  c #5E0500",
"&  c #600000",
"*  c #600200",
"=  c #630505",
"-  c #640806",
";  c #660C08",
":  c #71211A",
">  c #7C2A23",
",  c #800000",
"<  c #812D24",
"1  c #802E2E",
"2  c #82322B",
"3  c #80372E",
"4  c #97493C",
"5  c #9F5547",
"6  c #985248",
"7  c #A55A4C",
"8  c #A75B4C",
"9  c #A65C4D",
"0  c #AA5F4F",
"q  c #AA5F50",
"w  c #AB6151",
"e  c #A96B5E",
"r  c #B06A5A",
"t  c #B46D5A",
"y  c #B46C5B",
"u  c #AF7365",
"i  c #BC7464",
"p  c #B17668",
"a  c #B1766C",
"s  c #B97969",
"d  c #C07A67",
"f  c #BE8473",
"g  c #C7836E",
"h  c #CF8D76",
"j  c #C28B7A",
"k  c #D18F79",
"l  c #BF8F80",
"z  c #D58E80",
"x  c #D99780",
"c  c #D99981",
"v  c #DD9F86",
"b  c #D3A592",
"n  c #DDB39F",
"m  c #E3A589",
"M  c #E2A58B",
"N  c #E4A78D",
"B  c #E6A88E",
"V  c #E9AD91",
"C  c #E9AD92",
"Z  c #EBAF94",
"A  c #E5B39B",
"S  c #F0B599",
"D  c #F3B99C",
"F  c #F3BA9C",
"G  c #F4BA9C",
"H  c #DDB3A0",
"J  c #E0B7A2",
"K  c #EBBAA1",
"L  c #E5BCA8",
"P  c #F2BDA1",
"I  c #F8C0A2",
"U  c #FAC2A3",
"Y  c #FAC2A5",
"T  c #FBC3A5",
"R  c #FDC5A7",
"E  c #FDC6A7",
"W  c #FFC7A7",
"Q  c #F9C6AA",
"!  c #FFC7A8",
"~  c #FEC7A9",
"^  c #FFC6AA",
"/  c #FFC8A8",
"(  c #FFC8A9",
")  c #FFC9AB",
"_  c #F9CBAF",
"`  c #FFCBAC",
"'  c #FCCDB1",
"]  c #FFCDB1",
"[  c #FFCEB0",
"{  c #FFCEB1",
"}  c #FFCFB2",
"|  c #F1CFB8",
" . c #FFD1B4",
".. c #FFD2B5",
"X. c #FFD3B6",
"o. c #FFD3B7",
"O. c #F3D2BA",
"+. c #F6D5BE",
"@. c #F7D7BF",
"#. c #FCD5B9",
"$. c #FFD4B8",
"%. c #FFD5B9",
"&. c #FFD7BB",
"*. c #FFD7BC",
"=. c #FFDFBF",
"-. c #C1C0C1",
";. c #FDDBC1",
":. c #FFDBC0",
">. c #FFDCC2",
",. c #FFDDC2",
"<. c #FFDDC3",
"1. c #FFDEC3",
"2. c #FBDCC4",
"3. c #FEDEC4",
"4. c #FFDEC4",
"5. c #FFDFC5",
"6. c #FCDEC6",
"7. c #FFE0C6",
"8. c #FEE0C7",
"9. c #FFE0C7",
"0. c #FFE1C7",
"q. c #FFE3C6",
"w. c #FEE1C8",
"e. c #FFE1C8",
"r. c #FFE1C9",
"t. c #FFE2C9",
"y. c #FFE3C9",
"u. c #FFE2CA",
/* pixels */
"-.-.-.-.-.-.-.-.-.-.-.-.-.-.-.-.-.-.-.-.-.-.-.-.-.-.-.-.-.-.-.-.-.-.-.-.-.-.-.-.-.-.-.-.-.-.-.-.-.-.",
"-.-.-.-.-.-.-.-.-.-.-.-.-.-.-.-.-.-.-.-.-.-.-.-.-.-.-.-.-.-.-.-.-.-.-.-.-.-.-.-.-.-.-.-.-.-.-.-.-.-.",
"-.-.-.-.-.-.-.-.-.-.-.-.-.-.-.-.-.-.-.-.-.-.-.-.-.-.-.-.-.-.-.-.-.-.-.-.-.-.-.-.-.-.-.-.-.-.-.-.-.-.",
"-.-.-.-.-.-.-.-.-.-.-.-.-.-.-.-.-.-.-.-.-.-.-.-.-.-.-.-.-.-.-.-.-.-.-.-.-.-.-.-.-.-.-.-.-.-.-.-.-.-.",
"-.-.-.-.-.-.-.-.-.-.-.-.-.-.-.-.-.-.-.-.-.-.-.-.-.-.-.-.-.-.-.-.-.-.-.-.-.-.-.-.-.-.-.-.-.-.-.-.-.-.",
"-.-.-.-.-.-.-.-.-.-.-.-.-.-.-.-.-.-.-.-.-.-.-.-.-.-.-.-.-.-.-.-.-.-.-.-.-.-.-.-.-.-.-.-.-.-.-.-.-.-.",
"-.-.-.-.-.-.-.-.-.-.-.-.-.-.-.-.-.-.-.-.-.-.-.-.-.@ o -.-.-.-.-.-.-.-.-.-.-.-.-.-.-.-.-.-.-.-.-.-.-.",
"-.-.-.-.-.-.-.-.-.-.-.-.-.-.-.-.-.-.-.-.-.-.-.-.y.2.@.r.r.r.n @ -.-.-.-.-.-.-.-.-.-.-.-.-.-.-.-.-.-.",
"-.-.-.-.-.-.-.-.-.-.-.-.-.-.-.-.-.-.-.-.-.-.-.1 u t.t.t.t.t.t.t.+.l -.-.-.-.-.-.-.-.-.-.-.-.-.-.-.-.",
"-.-.-.-.-.-.-.-.-.-.-.-.-.-.-.-.-.-.-.-.-.-.-.u.;.;.*.O.b t.t.e.| J -.-.-.-.-.-.-.-.-.-.-.-.-.-.-.-.",
"-.-.-.-.-.-.-.-.-.-.-.-.-.-.-.-.-.-.-.-.-.-.# ' K 3.` Q A :.s e.t.6 X -.-.-.-.-.-.-.-.-.-.-.-.-.-.-.",
"-.-.-.-.-.-.-.-.-.-.-.-.-.-.-.-.-.-.-.-.-.-.f !  ...5.P t. .~ t.t.8.=.-.-.-.-.-.-.-.-.-.-.-.-.-.-.-.",
"-.-.-.-.-.-.-.-.-.-.-.-.-.-.-.-.-.-.-.-.-.-.-.V / ( ( M ( ( 5 t.t.t.: -.-.-.-.-.-.-.-.-.-.-.-.-.-.-.",
"-.-.-.-.-.-.-.-.-.-.-.-.-.-.-.-.-.-.-.-.-.-.-.r %.%.) g v N ( *.t.t.t -.-.-.-.-.-.-.-.-.-.-.-.-.-.-.",
"-.-.-.-.-.-.-.-.-.-.-.-.-.-.-.-.-.-.-.-.-.-.-.3 p t.,.4 S D ( 9 [ [ W -.-.-.-.-.-.-.-.-.-.-.-.-.-.-.",
"-.-.-.-.-.-.-.-.-.-.-.-.-.-.-.-.-.-.-.-.-.-.-.-.e.#.U 6.t.e.t.t.t.t.9.-.-.-.-.-.-.-.-.-.-.-.-.-.-.-.",
"-.-.-.-.-.-.-.-.-.-.-.-.-.-.-.-.-.-.-.-.-.-.-.-.X $ + e y.] 9.t.t.t.t.-.-.-.-.-.-.-.-.-.-.-.-.-.-.-.",
"-.-.-.-.-.-.-.-.-.-.-.-.-.-.-.-.-.-.-.-.-.-.-.-.-.-.-.-.-.8 _ t.t.t.C 4 -.-.-.-.-.-.-.-.-.-.-.-.-.-.",
"-.-.-.-.-.-.-.-.-.-.-.-.-.-.-.-.-.-.-.-.-.-.-.-.-.-.-.-.-.O G t.t.t.t.C -.-.-.-.-.-.-.-.-.-.-.-.-.-.",
"-.-.-.-.-.-.-.-.-.-.-.-.-.-.-.-.-.-.-.-.-.-.-.-.-.-.-.-.-., / t.t.t.t.C 4 -.-.-.-.-.-.-.-.-.-.-.-.-.",
"-.-.-.-.-.-.-.-.-.-.-.-.-.-.-.-.-.-.-.-.-.-.-.-.-.-.-.-.-.-.( ( t.e.t.C -.-.-.-.-.-.-.-.-.-.-.-.-.-.",
"-.-.-.-.-.-.-.-.-.-.-.-.-.-.-.-.-.-.-.-.-.-.-.-.-.-.-.-.-.-.* ( t.e.q.C 4 -.-.-.-.-.-.-.-.-.-.-.-.-.",
"-.-.-.-.-.-.-.-.-.-.-.-.-.-.-.-.-.-.-.-.-.-.-.-.-.-.-.-.-.-.* ( t.t.q.t.2 -.-.-.-.-.-.-.-.-.-.-.-.-.",
"-.-.-.-.-.-.-.-.-.-.-.-.-.-.-.-.-.-.-.-.-.-.-.-.-.-.-.-.-.-.* ( t.t.q.7.C 2 -.-.-.-.-.-.-.-.-.-.-.-.",
"-.-.-.-.-.-.-.-.-.-.-.-.-.-.-.-.-.-.-.-.-.-.-.-.-.-.-.-.-.-.-.* t.t.q.q.t.2 -.-.-.-.-.-.-.-.-.-.-.-.",
"-.-.-.-.-.-.-.-.-.-.-.-.-.-.-.-.-.-.-.-.-.-.-.-.-.-.-.-.-.-.-.-.( t.t.q.q.t.C -.-.-.-.-.-.-.-.-.-.-.",
"-.-.-.-.-.-.-.-.-.-.-.-.-.-.-.-.-.-.-.-.-.-.-.-.-.-.-.-.-.-.-.-.* t.t.q.q.t.2 -.-.-.-.-.-.-.-.-.-.-.",
"-.-.-.-.-.-.-.-.-.-.-.-.-.-.-.-.-.-.-.-.-.-.-.-.-.-.-.-.-.-.-.-.* t.t.q.q.q.C -.-.-.-.-.-.-.-.-.-.-.",
"-.-.-.-.-.-.-.-.-.-.-.-.-.-.-.-.-.-.-.-.-.-.-.-.-.-.-.-.-.-.-.-.-.( t.t.q.q.t.-.-.-.-.-.-.-.-.-.-.-.",
"-.-.-.-.-.-.-.-.-.-.-.-.-.-.-.-.-.-.-.-.-.-.-.-.-.-.-.-.-.-.-.-.-.( t.t.8.w.2 C -.-.-.-.-.-.-.-.-.-.",
"-.-.-.-.-.-.-.-.-.-.-.-.-.-.-.-.-.-.-.-.-.-.-.-.-.-.-.-.-.-.-.-.* ( e.q.q.t.t.2 -.-.-.-.-.-.-.-.-.-.",
"-.-.-.-.-.-.-.-.-.-.-.-.-.-.-.-.-.-.-.-.-.-.-.-.-.-.-.-.-.-.-.-.-.o.q.<.q.t.t.t.$.-.-.-.-.-.-.-.-.-.",
"-.-.-.-.-.-.-.-.-.-.-.-.-.-.-.-.-.-.-.-.-.-.-.-.-.-.-.-.-.-.* -.* t.t.t.t.t.t.e.X.-.-.-.-.-.-.-.-.-.",
"-.-.-.-.-.-.-.-.-.-.-.-.-.-.-.-.-.-.-.-.-.-.-.-.-.-.-.-.-.-.t.t.t.t.t.t.t.t.t.>.2 2 -.-.-.-.-.-.-.-.",
"-.-.-.-.-.-.-.-.j t.t.-.-.-.-.-.-.-.-.-.-.-.-.-.z = * -.* t.t.t.t.t.t.t.t.t.t.:.( -.-.-.-.-.-.-.-.-.",
"-.-.-.-.-.-.-.-.q.t.t.t.* -.-.-.-.* * k k ; -.= ; t.t.t.t.t.t.t.t.t.t.t.t.t.t.&.y -.-.-.-.-.-.-.-.-.",
"-.-.-.-.-.-.-.-.q.t.t.t.* k k k * >.t.t.t.t.t.t.t.t.t.t.t.t.t.t.t.t.t.t.t.t.%.( / -.-.-.-.-.-.-.-.-.",
"-.-.-.-.-.-.-.-.a L t.t. .5.t.t.t.t.t.t.t.t.t.t.t.t.t.t.t.t.t.t.t.t.t.1.{ { ( T -.-.-.-.-.-.-.-.-.-.",
"-.-.-.-.-.-.-.-.-.0.w.t.t.t.t.t.t.t.t.t.t.t.t.t.t.t.t.t.t.t.t.t.t.} E ( d ; -.-.-.-.-.-.-.-.-.-.-.-.",
"-.-.-.-.-.-.-.-.-.@ H t.t.t.t.t.t.4.:.:.:.:.:.:.:.:.:.:.:.{ ( I C ( - -.-.-.-.-.-.-.-.-.-.-.-.-.-.-.",
"-.-.-.-.-.-.-.-.-.-.u.u.%.$.$.$.$.[ ( R h q Z ( ( ( ( S w 0 F B > -.-.-.-.-.-.-.-.-.-.-.-.-.-.-.-.-.",
"-.-.-.-.-.-.-.-.-.-.-.u.( ( ( ( c < i Y 7 % x ^ ^ ^ ^ m = & . -.-.-.-.-.-.-.-.-.-.-.-.-.-.-.-.-.-.-.",
"-.-.-.-.-.-.-.-.-.-.-.-.# *   -.-.-.-.-.-.-.-.-.-.-.-.-.-.-.-.-.-.-.-.-.-.-.-.-.-.-.-.-.-.-.-.-.-.-.",
"-.-.-.-.-.-.-.-.-.-.-.-.-.-.-.-.-.-.-.-.-.-.-.-.-.-.-.-.-.-.-.-.-.-.-.-.-.-.-.-.-.-.-.-.-.-.-.-.-.-.",
"-.-.-.-.-.-.-.-.-.-.-.-.-.-.-.-.-.-.-.-.-.-.-.-.-.-.-.-.-.-.-.-.-.-.-.-.-.-.-.-.-.-.-.-.-.-.-.-.-.-.",
"-.-.-.-.-.-.-.-.-.-.-.-.-.-.-.-.-.-.-.-.-.-.-.-.-.-.-.-.-.-.-.-.-.-.-.-.-.-.-.-.-.-.-.-.-.-.-.-.-.-.",
"-.-.-.-.-.-.-.-.-.-.-.-.-.-.-.-.-.-.-.-.-.-.-.-.-.-.-.-.-.-.-.-.-.-.-.-.-.-.-.-.-.-.-.-.-.-.-.-.-.-.",
"-.-.-.-.-.-.-.-.-.-.-.-.-.-.-.-.-.-.-.-.-.-.-.-.-.-.-.-.-.-.-.-.-.-.-.-.-.-.-.-.-.-.-.-.-.-.-.-.-.-.",
"-.-.-.-.-.-.-.-.-.-.-.-.-.-.-.-.-.-.-.-.-.-.-.-.-.-.-.-.-.-.-.-.-.-.-.-.-.-.-.-.-.-.-.-.-.-.-.-.-.-.",
"-.-.-.-.-.-.-.-.-.-.-.-.-.-.-.-.-.-.-.-.-.-.-.-.-.-.-.-.-.-.-.-.-.-.-.-.-.-.-.-.-.-.-.-.-.-.-.-.-.-."
};
