/* XPM */
static char *c6e7875fef43432cb3f0b8ae6c85fa27DlL22X8NamNuhiGZ[] = {
/* columns rows colors chars-per-pixel */
"50 50 185 2 ",
"   c #591F12",
".  c #572014",
"X  c #5D2213",
"o  c #582014",
"O  c #5E2416",
"+  c #62200E",
"@  c #65210E",
"#  c #6E220B",
"$  c #69230F",
"%  c #742107",
"&  c #73220A",
"*  c #75230A",
"=  c #7A2409",
"-  c #602313",
";  c #662513",
":  c #6B2613",
">  c #6C2511",
",  c #6A2816",
"<  c #6D2916",
"1  c #632719",
"2  c #63281A",
"3  c #642A1C",
"4  c #702812",
"5  c #762810",
"6  c #7B2B12",
"7  c #7B2C12",
"8  c #7C2C12",
"9  c #75311D",
"0  c #652F22",
"q  c #673226",
"w  c #733321",
"e  c #7A3723",
"r  c #7D3623",
"t  c #7B3A26",
"y  c #793B28",
"u  c #7C3D2A",
"i  c #7D402E",
"p  c #7A4435",
"a  c #7F4E40",
"s  c #7F5043",
"d  c #80290C",
"f  c #862D0F",
"g  c #822E12",
"h  c #852F11",
"j  c #892F10",
"k  c #8B3011",
"l  c #8D3313",
"z  c #8E3414",
"x  c #84351B",
"c  c #8B3619",
"v  c #8F381A",
"b  c #913A1B",
"n  c #903B1E",
"m  c #913C1E",
"M  c #873A21",
"N  c #883A21",
"B  c #8D3E24",
"V  c #813F2A",
"C  c #943F22",
"Z  c #8A4028",
"A  c #964122",
"S  c #914227",
"D  c #954225",
"F  c #9D4122",
"G  c #984426",
"H  c #92412A",
"J  c #92452B",
"K  c #95472C",
"L  c #9B492B",
"P  c #814331",
"I  c #884732",
"U  c #8A4833",
"Y  c #8D4B36",
"T  c #834A39",
"R  c #874D3B",
"E  c #804B3C",
"W  c #844D3C",
"Q  c #9F5033",
"!  c #995037",
"~  c #96513A",
"^  c #93543F",
"/  c #99523A",
"(  c #9E543A",
")  c #9C573E",
"_  c #A04325",
"`  c #A94B2D",
"'  c #A05134",
"]  c #AE5437",
"[  c #A3563A",
"{  c #A65B3F",
"}  c #B25336",
"|  c #B1573A",
" . c #865040",
".. c #855345",
"X. c #86574A",
"o. c #8D5E4F",
"O. c #975944",
"+. c #9D5D46",
"@. c #905E4F",
"#. c #975F4F",
"$. c #A75D42",
"%. c #A25D44",
"&. c #A45F47",
"*. c #A85F43",
"=. c #936456",
"-. c #97695A",
";. c #996D5F",
":. c #A1614A",
">. c #A0624D",
",. c #AC664B",
"<. c #AA664D",
"1. c #AD664C",
"2. c #AD684E",
"3. c #B76146",
"4. c #BA674C",
"5. c #AB6951",
"6. c #A46D59",
"7. c #B16851",
"8. c #B26F55",
"9. c #B06E59",
"0. c #AB705B",
"q. c #AC725D",
"w. c #B47359",
"e. c #A07162",
"r. c #A67969",
"t. c #A47A6C",
"y. c #A67D6F",
"u. c #B27862",
"i. c #B97A61",
"p. c #BB7D65",
"a. c #B37F6C",
"s. c #B5806B",
"d. c #BC8069",
"f. c #BB846E",
"g. c #BC856F",
"h. c #BD8772",
"j. c #BF8872",
"k. c #BD8B77",
"l. c #B18A7D",
"z. c #B28C7E",
"x. c #B78C7C",
"c. c #B88B79",
"v. c #BE8C79",
"b. c #BA8D7C",
"n. c #C0856D",
"m. c #C18770",
"M. c #C18872",
"N. c #C38B74",
"B. c #C68F79",
"V. c #C6907B",
"C. c #C0907C",
"Z. c #C7927C",
"A. c #C9947E",
"S. c #C69580",
"D. c #CB9681",
"F. c #CD9A85",
"G. c #CC9D89",
"H. c #D2A28D",
"J. c #C5A395",
"K. c #C7A495",
"L. c #CDA697",
"P. c #CDA898",
"I. c #D0AB9B",
"U. c #D0AC9D",
"Y. c #DBB19E",
"T. c #D6B2A2",
"R. c #D4B2A4",
"E. c #D6B5A7",
"W. c #D8B3A4",
"Q. c #D9B5A5",
"!. c #DFB8A6",
"~. c #DBB8A8",
"^. c #DDBBAA",
"/. c #DEBCAB",
"(. c #E0C2B3",
"). c #E6C4B2",
"_. c #E0C2B4",
"`. c #E7C5B4",
"'. c #E8C7B7",
"]. c #E7C9BA",
"[. c #EBC9B9",
"{. c #EACDBE",
"}. c #EDCFBF",
"|. c #EFD2C2",
" X c #F4D9CB",
/* pixels */
"} } } 9./ k k k k k k : 8 k k m &.k k h ` } } p.D.k k k k k k i.d.k k k k k k > 6 k k k % % % + 8 k ",
"` ] 4.*.K k k k k C L 4 g k f c ! D G h _ ` ` 4.p.h k k k k f ,.5.h k k k m L 5 8 k k k = x M $ h k ",
"k [ H.k k k k k k 7.B.k k k % % % u.i.k k k k k k > 8 k k j % % % $ h k k $.G.k k k k k k w.m.k k k ",
"Z.H.).A.A.Z.Z.Z.Z.I.^.A.Z.Z.k.v.v.Y.Y.Z.Z.Z.Z.A.A.b.C.Z.Z.V.k.v.v.c.V.Z.Z.H.).A.A.Z.Z.Z.A.Y.!.Z.Z.Z.",
"*.*.*.s.u.*.*.*.*.*.*.O.+.*.*.2.f.*.*.%.&.*.*.n.I.*.*.*./ / / v.F.*.*.*.*.*.*.O.+.*.*.*.i.i.i.#.+.*.",
"a a a z.y.a a s o.a a X...a a =.K.a a a a a a t.J.a a a a a a l.x.a a a a a a y.;.a a ..r.....s a a ",
"k [ H.k k k * % % :.B.k k k k k k d.i.k k k % % % + 8 k k k k k k 5 h k k $.G.k k k k k k w.m.k k k ",
"k Q N.b v k = = = ) i.h k k k l m 8.2.k k k = g M $ 8 k k k k A D 7 k k k [ n.h k k k k k ,.w.h k k ",
"k k k +./ k k k k k k : 8 k k m &.k k h k k k ,.D.k k k k k k i.d.k k k k k k > 6 k k k k k k : 8 k ",
"k G 8.J C k k k k Q ,.8 h k d g B ) [ k k k k L *.B c k k z A ' [ 8 d d d S 7.8 h k k k k [ *.7 h k ",
"k [ H.k k k k k k 7.B.k k k % % % u.i.k k k k k k 9 g k k l b k k 5 & % % ~ G.k k k k k k w.m.k k k ",
"[.}. X[.[.[.[.[.[.|. X[.[.[.'.'.'.|.|.[.[.[.[.[.[.].].[.[.[.[.[.[.].'.'.'.}. X[.[.[.[.[.[.|.|.[.[.[.",
"k k k +./ k k k k k k : 8 k k m %.k k g k k k ,.D.k k k % % % 0.d.k k k k k k > H } } ` % % % + 8 k ",
"4 9 u R P > 4 4 4 9 t ; > 4 4 9  .e e : 4 4 4 ^ a.: > 4 $ $ $ >.6.> 4 4 4 9 u ; 9 r r 9 $ 9 w - > 4 ",
"k [ G.% % % k k k 7.B.k k k k k k d.i.k k k k k k > 8 k k k k k k 5 h k k $.G.k k k k k k w.m.k k k ",
"k G <.Z N d k k d J ) 5 h k k b [ 4.4.A l k k L ,.8 h k k k k [ { g k k d B %.6 g k k k k ' { 6 h k ",
"k k k +./ k k k % % % + 8 k k A i.} } ` z k k ,.D.k k k k k k i.d.k k k % % % @ 6 k k k k k k : 8 k ",
"`.`.`.{.].`.`.`.(.(.(._.`.`.`.'.|.[.[.[.`.`.`.{.|.`.`.`.`.`.`.|.|.`.`.`.(.(.(.(.`.`.`.`.`.`.`._.`.`.",
"k [ H.k k k k k k 7.B.k k k k k k d.i.k k k k k k > 8 k k k k k k 5 h k k $.G.k k k k k k w.m.k k k ",
"X p x.3 3 2 2 1 X X.r.o X X X O 2 -.=.  X X X 3 q 0 2 X X 3  .0 0 X X X X E l.o o X X X X @.e.. X X ",
"k k k +.7.} } } k k k : 8 k k n ^ % % % j k k ,.D.k k k k k k i.d.k k k k k k > 6 k k k k k k : 8 k ",
"k G 2.K Q _ _ F k Q *.6 h k k z J ! ! d k k k L ,.8 h k k k k [ { g k k k L ,.8 g k k k k ' { 6 h k ",
"k [ H.k k k k k k 7.B.k k k k k k d.i.k k k k k k > 8 k k k k k k 5 h k k $.G.k k k k k k w.m.k k k ",
"M.B.G.H.F.f.f.f.M.A.F.C.N.M.M.B.H.D.D.h.M.M.M.F.P.h.j.M.f.f.f.G.H.h.M.M.M.Z.G.H.S.f.f.g.N.A.F.h.j.M.",
"z z z :.Y = = = z z z < g z z C :.z z h z z z 1.D.z z z = = = q.d.z z z z z z < > = = = l z z , g z ",
"L.I.E.~.W.L.L.P.T.U.R.T.I.L.K.I./.T.T.L.L.L.L.T.^.K.P.I.I.I.L.Q.Q.L.L.L.P.U.E.~.T.L.L.P./.T.R.L.L.L.",
"k [ H.k k k k k k 7.B.k k k % % % u.i.k k k k k k > K } } ` k k k 5 h k k $.G.k k k k k k w.m.k k k ",
"k G 8.J C k k k k Q ,.8 h k d g B ) [ k k k k L *.6 m _ _ F h ' [ 8 k k k L 7.8 h k k k k [ *.7 h k ",
"k k k +./ k k k k k k : 8 k k m &.k k h k k k ,.D.k k k k k k i.d.k k k k k k > 6 k k k k k k : 8 k ",
"k Q N.b v k k k k *.u.& * = k l m 8.2.k k k ` | 3.M g k k k k A D 7 = = = K n.h k k k k k ,.w.h k k ",
"k [ H.k k k k k k 7.h.% % % k k k d.i.k k k } } } r 8 k k k k k k 5 & % % ~ G.k k k k k k w.m.k k k ",
"}.}.}.|.|.}.}.}.}.}.}.{.}.}.}.|.|.}.}.}.}.}.}.|. X}.}.}.}.}.}. X X}.}.}.}.}.}.{.{.{.{.{.}.}.}.{.}.}.",
"8 8 8 O.~ 8 8 8 8 8 8 ; 5 8 8 M >.8 8 5 8 8 8 :.S.8 8 8 8 8 8 u.s.8 8 8 8 8 8 : @ # # # 8 8 8 ; 5 8 ",
"> e X.I V > > > > i  .> > > > 9 ^ T P > > > > I >.- ; > > > > ^ O.; : > > y X.< < > > > < P W > > > ",
"k [ H.k k k k k k 7.B.k k k k k k d.i.k k k k k k > 8 k k k k k k 5 h k k $.G.k k k k k k w.m.k k k ",
"k b Q / Z = = = k C L 4 g k k b ( G G h k k k [ p.h k k k k k 2.<.* = = k m L 5 8 k k k k A G 4 h k ",
"k k k +.U % % * k k k : 8 k k m &.k k h k k k ,.D.k k k k k k i.u.% % % k k k > 6 k k k k k k : 8 k ",
"}.}.}.|.|.}.}.}.}.}.}.{.}.}.}.|.|.}.}.}.}.}.}.|. X}.}.}.}.}.}. X X}.}.}.}.}.}.{.{.{.{.{.}.}.}.{.}.}.",
"8 8 8 O.~ 8 8 8 8 8 8 ; 5 8 8 M >.8 8 5 8 8 8 :.S.8 8 8 8 8 8 u.s.8 8 8 8 8 8 : @ # # # 8 8 8 ; 5 8 ",
"> e X.I V > > > > i  .> > > > 9 ^ T P > > > > I >.- ; > > > > ^ O.; : > > y X.< < > > > < P W > > > ",
"k [ H.k k k k k k 7.B.k k k k k k d.i.k k k k k k > 8 k k k k k k 5 h k k $.G.k k k k k k w.m.k k k ",
"k b Q / Z = = = k C L 4 g k k b ( G G h k k k [ p.h k k k k k 2.<.* = = k m L 5 8 k k k k A G 4 h k ",
"k k k +.U % % * k k k : 8 k k m &.k k h k k k ,.D.k k k k k k i.u.% % % k k k > 6 k k k k k k : 8 k ",
"k k k +.U % % * k k k : 8 k k m &.k k h k k k ,.D.k k k k k k i.u.% % % k k k > 6 k k k k k k : 8 k ",
"}.}.}.|.|.}.}.}.}.}.}.{.}.}.}.|.|.}.}.}.}.}.}.|. X}.}.}.}.}.}. X X}.}.}.}.}.}.{.{.{.{.{.}.}.}.{.}.}.",
"8 8 8 O.~ 8 8 8 8 8 8 ; 5 8 8 M >.8 8 5 8 8 8 :.S.8 8 8 8 8 8 u.s.8 8 8 8 8 8 : @ # # # 8 8 8 ; 5 8 ",
"> e X.I V > > > > i  .> > > > 9 ^ T P > > > > I >.- ; > > > > ^ O.; : > > y X.< < > > > < P W > > > ",
"k [ H.k k k k k k 7.B.k k k k k k d.i.k k k k k k > 8 k k k k k k 5 h k k $.G.k k k k k k w.m.k k k ",
"k b Q / Z = = = k C L 4 g k k b ( G G h k k k [ p.h k k k k k 2.<.* = = k m L 5 8 k k k k A G 4 h k ",
"k k k +.U % % * k k k : 8 k k m &.k k h k k k ,.D.k k k k k k i.u.% % % k k k > 6 k k k k k k : 8 k "
};
